<svg id="Calque_1" data-name="Calque 1" xmlns="http://www.w3.org/2000/svg" viewBox="0 0 792.59 146.32"><defs><style>.cls-1{fill:#387965;}.cls-2{fill:#76d9c7;}</style></defs><title>icon-sunnyside-vert</title><path class="cls-1" d="M688.62,340.52c-11.2,12-24.56,12.47-38.16,7.29-14.73-5.61-22.56-17.42-24.24-32.9-1.75-16.08,2.62-30.1,16.07-40.2,9.14-6.86,19.61-8.31,30.62-6.45,6.12,1,11.15,4.21,15.93,10.29,0-4.43,0-7.62,0-10.81,0-8.22.09-16.44,0-24.65,0-2.7.46-4,3.59-3.89,8.69,0.21,17.38.17,26.07,0,2.65,0,3.5.69,3.5,3.42q-0.13,51.44,0,102.88c0,2.7-.83,3.55-3.5,3.5-8.06-.14-16.13-0.27-24.17,0-4.25.17-6.23-1-5.47-5.43A15.05,15.05,0,0,0,688.62,340.52Z" transform="translate(-32.32 -236.28)"/><path class="cls-1" d="M346.14,278.93c8.07-10.84,18.32-12.33,29.29-11,13.15,1.6,21.85,11.38,22.59,26.86,0.82,17,.36,34.12.53,51.19,0,2.28-.87,3-3.08,3-8.85-.07-17.7-0.12-26.55,0-3.19.05-3.07-1.81-3.06-4,0-11.7.06-23.39,0-35.09a72.46,72.46,0,0,0-.66-9.44c-0.76-5.51-3.95-8.45-9-8.64s-7.88,2.29-9.34,7.61a33.37,33.37,0,0,0-.72,8.94c0,12-.12,24,0.08,36,0.06,3.4-.63,4.74-4.36,4.61-8-.29-16.12-0.28-24.17,0-3.7.12-4.46-1.24-4.44-4.65q0.2-35.32,0-70.65c0-3.42.83-4.76,4.49-4.64,7.58,0.27,15.18.36,22.75,0,4.5-.23,6.52,1,5.67,5.64A32.26,32.26,0,0,0,346.14,278.93Z" transform="translate(-32.32 -236.28)"/><path class="cls-1" d="M247.46,279c8.16-11,18.53-12.53,29.65-11,13.2,1.81,21.64,11.63,22.3,27.14,0.72,16.88.29,33.81,0.47,50.72,0,2.61-1.13,3.17-3.43,3.15-8.53-.08-17.07-0.14-25.6,0-3,.06-3.74-1.05-3.71-3.87,0.12-12,.1-24,0-36a55.46,55.46,0,0,0-.77-9.43c-0.93-5.13-4.31-7.84-9.19-7.83-4.72,0-7.61,2.5-8.95,7.54-0.91,3.42-.77,6.89-0.77,10.36,0,11.7-.13,23.4.08,35.09,0.06,3.39-1,4.28-4.28,4.19-8.21-.21-16.44-0.14-24.66,0-2.62,0-4.05-.42-4-3.57q0.16-36.27,0-72.55c0-3,1.11-3.79,3.92-3.74,7.9,0.14,15.82.33,23.7-.06,4.52-.22,5.92,1.38,5.28,5.56A39.62,39.62,0,0,0,247.46,279Z" transform="translate(-32.32 -236.28)"/><path class="cls-1" d="M167.37,339.57c-6.42,8.06-13.9,11-22.78,11-16.77,0-27-8.42-28.8-25.07-1.91-17.78-.5-35.67-0.82-53.51,0-2.85,1.74-2.85,3.77-2.84,8.37,0,16.75.13,25.12,0,3.08-.07,4.05.85,4,4-0.16,12.48-.09,25,0,37.44a39.3,39.3,0,0,0,.56,7.06c1.12,6,4.2,8.67,9.48,8.62,5.09-.05,8.22-3.17,9.14-9,0.82-5.18.48-10.4,0.51-15.61,0-9.64.09-19.28,0-28.91,0-2.65.81-3.6,3.51-3.56q12.79,0.19,25.59,0c2.55,0,3.65.63,3.64,3.43q-0.13,36.5,0,73c0,2.83-1.13,3.45-3.66,3.42-7.9-.11-15.81-0.3-23.69.07-4.43.21-6.07-1.21-5.38-5.52A26.7,26.7,0,0,0,167.37,339.57Z" transform="translate(-32.32 -236.28)"/><path class="cls-1" d="M451.92,308.36c4.61-11.54,9.39-23,13.71-34.66,1.36-3.66,3.22-4.71,6.92-4.59,8.37,0.27,16.75.17,25.12,0,3.16-.05,3.92.67,2.48,3.74q-25,53.33-49.91,106.74c-0.87,1.86-1.75,3-4.14,3-8.69-.16-17.38-0.14-26.07,0-3.11,0-2.93-1-1.86-3.32,5.25-11.13,10.26-22.37,15.62-33.45,1.51-3.13,1.67-5.58.07-8.8-10.27-20.79-20.29-41.71-30.39-62.58-2.52-5.21-2.51-5.22,3.28-5.23,8.53,0,17.07.15,25.59-.08,3.36-.09,5,0.92,6.07,4.22,3.94,11.77,8.25,23.41,12.42,35.1Z" transform="translate(-32.32 -236.28)"/><path class="cls-1" d="M793.43,315.38c-8.85,0-17.69,0-26.54,0-1.3,0-3.21-.79-3.8.77s0.88,2.87,2,4c5.76,5.94,13.12,7.2,20.9,6.94a33,33,0,0,0,17.8-5.73c2.2-1.51,3.41-1.42,5,.74,3.07,4.21,6.26,8.34,9.63,12.31,1.73,2,1.24,3.27-.63,4.56-2.46,1.7-4.76,3.76-7.43,5-18.79,8.94-38.07,9.7-56.68.45-27.91-13.88-29.15-52.78-2.72-69.76,16.69-10.72,44.35-9.44,59.92,2.85,11,8.69,14.74,20.4,14,34-0.17,2.91-1.32,4-4.37,3.9C811.44,315.25,802.44,315.37,793.43,315.38Z" transform="translate(-32.32 -236.28)"/><path class="cls-1" d="M535.74,350.63c-11.12-.23-21.78-1.78-30-10.44-3.36-3.55-5.15-7.88-6.52-12.46-0.58-2,0-2.92,2-3.34q9.5-2,19-4.14c1.76-.4,2.45.33,3.26,1.79a14.14,14.14,0,0,0,16.35,7.15c1.82-.44,3.85-0.85,4-3.35,0.12-2.22-1.56-3-3.19-3.6-5.34-2-10.73-3.79-16.09-5.7-4.93-1.75-9.78-3.69-13.75-7.24-10.53-9.4-10.47-22.84-.34-32.72,12.42-12.12,45.58-14,57,6.21,2.87,5.07,3,5-2.74,6.56-4.88,1.32-9.8,2.51-14.64,4-2.42.74-4,.51-5.59-1.73-2-2.94-5.19-4-8.75-3.64-2.05.19-3.83,1-4.12,3.2-0.26,2.09,1.36,3,3.06,3.69,5.45,2.1,10.91,4.16,16.35,6.28a43.41,43.41,0,0,1,14.87,9.06c10.43,10.17,8.9,25.89-3.34,33.79C554.37,349.22,545.25,350.74,535.74,350.63Z" transform="translate(-32.32 -236.28)"/><path class="cls-1" d="M65.33,350.57c-7-.2-17.44-1.53-25.61-9.68-3.7-3.7-5.72-8.23-7.16-13.15-0.58-2-.21-2.9,1.87-3.33,6.34-1.32,12.66-2.73,19-4.15,1.68-.38,2.45.25,3.29,1.75,3.43,6.13,8.85,8.55,15.88,7.28,2-.37,4.29-0.84,4.57-3.39,0.26-2.39-1.79-3.15-3.57-3.8-5.05-1.83-10.15-3.55-15.21-5.34-4.78-1.69-9.5-3.53-13.5-6.76-11.16-9-11.54-22.62-1.57-33,11.72-12.22,45.41-14.86,57.41,5.67,3,5.11,3.1,5.1-2.57,6.63-3.36.91-6.73,1.75-10.08,2.7-4.46,1.27-8.78,3.3-12.34-2.17-1.3-2-4.41-2.27-7.05-1.81-1.8.32-3.46,0.87-3.69,3s1.1,3.12,2.87,3.8q8.19,3.11,16.37,6.26a45.53,45.53,0,0,1,13.5,7.76c12.44,10.65,10.76,27.91-3.52,36.09C86.42,349.41,77.89,350.71,65.33,350.57Z" transform="translate(-32.32 -236.28)"/><path class="cls-1" d="M582.57,309c0-11.86.1-23.72-.06-35.57,0-3.27.93-4.41,4.26-4.33,8.38,0.2,16.76.16,25.14,0,2.84-.05,3.8.75,3.79,3.72q-0.17,36.29,0,72.57c0,2.62-.68,3.62-3.43,3.57q-13-.21-26.09,0c-3,.06-3.68-1.17-3.65-3.93C582.63,333.08,582.56,321.06,582.57,309Z" transform="translate(-32.32 -236.28)"/><path class="cls-1" d="M599.25,264.24c-4,0-7.88-.42-11.43-2.43-4.65-2.63-7.22-6.61-7-12a12.49,12.49,0,0,1,8.28-11.63,27.32,27.32,0,0,1,18.53-.59,13.05,13.05,0,0,1,9.75,12.48c0.1,5.75-3.12,10.33-8.88,12.65A25.63,25.63,0,0,1,599.25,264.24Z" transform="translate(-32.32 -236.28)"/><path class="cls-2" d="M658.67,309.32c-0.11-8.32,3.88-14.8,10.42-17.08,6.8-2.37,14.22.09,17.65,6.31a20.81,20.81,0,0,1,.11,20.84c-3,5.55-8.85,8.13-15.27,7.17A15.18,15.18,0,0,1,659.4,314.8,53.88,53.88,0,0,1,658.67,309.32Z" transform="translate(-32.32 -236.28)"/><path class="cls-2" d="M778.81,300.9c-4.41,0-8.83-.09-13.23,0-2.83.08-3.35-1.05-2.19-3.39a14.79,14.79,0,0,1,1.38-2.46c5.86-7.62,22.6-7.55,28.38.13,1,1.37,2.33,2.95,1.66,4.69-0.73,1.91-2.76.91-4.18,1C786.69,301,782.74,300.9,778.81,300.9Z" transform="translate(-32.32 -236.28)"/></svg>